OmeSwarlipi.ufo
<glyph name="numbersign" format="1">
  <advance width="1500"/>
  <unicode hex="0023"/>
  <outline>
    <contour>
      <point x="521" y="1322" type="line"/>
      <point x="656" y="1322" type="line"/>
      <point x="674" y="1304" type="line"/>
      <point x="674" y="998" type="line"/>
      <point x="827" y="998" type="line"/>
      <point x="827" y="1304" type="line"/>
      <point x="845" y="1322" type="line"/>
      <point x="980" y="1322" type="line"/>
      <point x="998" y="1304" type="line"/>
      <point x="998" y="998" type="line"/>
      <point x="1304" y="998" type="line"/>
      <point x="1322" y="980" type="line"/>
      <point x="1322" y="845" type="line"/>
      <point x="1304" y="827" type="line"/>
      <point x="998" y="827" type="line"/>
      <point x="998" y="674" type="line"/>
      <point x="1304" y="674" type="line"/>
      <point x="1322" y="656" type="line"/>
      <point x="1322" y="521" type="line"/>
      <point x="1304" y="503" type="line"/>
      <point x="998" y="503" type="line"/>
      <point x="998" y="197" type="line"/>
      <point x="980" y="179" type="line"/>
      <point x="845" y="179" type="line"/>
      <point x="827" y="197" type="line"/>
      <point x="827" y="503" type="line"/>
      <point x="674" y="503" type="line"/>
      <point x="674" y="197" type="line"/>
      <point x="656" y="179" type="line"/>
      <point x="521" y="179" type="line"/>
      <point x="503" y="197" type="line"/>
      <point x="503" y="503" type="line"/>
      <point x="197" y="503" type="line"/>
      <point x="179" y="521" type="line"/>
      <point x="179" y="656" type="line"/>
      <point x="197" y="674" type="line"/>
      <point x="503" y="674" type="line"/>
      <point x="503" y="827" type="line"/>
      <point x="197" y="827" type="line"/>
      <point x="179" y="845" type="line"/>
      <point x="179" y="980" type="line"/>
      <point x="197" y="998" type="line"/>
      <point x="503" y="998" type="line"/>
      <point x="503" y="1304" type="line"/>
    </contour>
    <contour>
      <point x="674" y="827" type="line"/>
      <point x="674" y="674" type="line"/>
      <point x="827" y="674" type="line"/>
      <point x="827" y="827" type="line"/>
    </contour>
  </outline>
</glyph>
<glyph name="quotesingle" format="1">
  <advance width="1500"/>
  <unicode hex="0027"/>
  <outline>
    <contour>
      <point x="877" y="1016" type="qcurve" smooth="yes"/>
      <point x="899" y="1016"/>
      <point x="951" y="1012"/>
      <point x="970" y="1008" type="qcurve"/>
      <point x="952" y="886" type="line"/>
      <point x="932" y="889"/>
      <point x="889" y="894"/>
      <point x="870" y="894" type="qcurve" smooth="yes"/>
      <point x="824" y="894"/>
      <point x="748" y="857"/>
      <point x="694" y="788"/>
      <point x="664" y="691"/>
      <point x="664" y="632" type="qcurve" smooth="yes"/>
      <point x="664" y="201" type="line"/>
      <point x="531" y="201" type="line"/>
      <point x="531" y="1001" type="line"/>
      <point x="639" y="1001" type="line"/>
      <point x="655" y="854" type="line"/>
      <point x="661" y="854" type="line"/>
      <point x="679" y="886"/>
      <point x="721" y="944"/>
      <point x="772" y="989"/>
      <point x="837" y="1016"/>
    </contour>
  </outline>
</glyph>
<glyph name="parenleft" format="2">
  <advance width="750"/>
  <unicode hex="0028"/>
  <outline>
    <contour>
      <point x="188" y="744" type="qcurve" smooth="yes"/>
      <point x="188" y="843"/>
      <point x="217" y="1035"/>
      <point x="275" y="1217"/>
      <point x="365" y="1384"/>
      <point x="427" y="1458" type="qcurve"/>
      <point x="563" y="1458" type="line"/>
      <point x="452" y="1305"/>
      <point x="337" y="939"/>
      <point x="337" y="745" type="qcurve" smooth="yes"/>
      <point x="337" y="651"/>
      <point x="366" y="464"/>
      <point x="423" y="285"/>
      <point x="507" y="117"/>
      <point x="561" y="42" type="qcurve"/>
      <point x="427" y="42" type="line"/>
      <point x="365" y="113"/>
      <point x="275" y="277"/>
      <point x="217" y="455"/>
      <point x="188" y="645"/>
    </contour>
  </outline>
</glyph>
<glyph name="parenright" format="2">
  <advance width="750"/>
  <unicode hex="0029"/>
  <outline>
    <contour>
      <point x="563" y="744" type="qcurve" smooth="yes"/>
      <point x="563" y="646"/>
      <point x="535" y="456"/>
      <point x="475" y="278"/>
      <point x="386" y="115"/>
      <point x="324" y="44" type="qcurve"/>
      <point x="190" y="44" type="line"/>
      <point x="244" y="118"/>
      <point x="328" y="286"/>
      <point x="385" y="464"/>
      <point x="413" y="651"/>
      <point x="413" y="745" type="qcurve" smooth="yes"/>
      <point x="413" y="938"/>
      <point x="300" y="1304"/>
      <point x="188" y="1457" type="qcurve"/>
      <point x="324" y="1457" type="line"/>
      <point x="386" y="1383"/>
      <point x="475" y="1216"/>
      <point x="535" y="1035"/>
      <point x="563" y="843"/>
    </contour>
  </outline>
</glyph>
<glyph name="plus" format="2">
  <advance width="1500"/>
  <unicode hex="002B"/>
  <outline>
    <contour>
      <point x="1250" y="663" type="line"/>
      <point x="250" y="663" type="line"/>
      <point x="250" y="838" type="line"/>
      <point x="1250" y="838" type="line"/>
    </contour>
    <contour>
      <point x="838" y="1250" type="line"/>
      <point x="838" y="250" type="line"/>
      <point x="663" y="250" type="line"/>
      <point x="663" y="1250" type="line"/>
    </contour>
  </outline>
</glyph>
<glyph name="comma" format="2">
  <advance width="1500"/>
  <unicode hex="002C"/>
  <outline>
    <contour>
      <point x="907" y="262" type="line"/>
      <point x="923" y="238" type="line"/>
      <point x="866" y="14"/>
      <point x="729" y="-289" type="qcurve"/>
      <point x="577" y="-289" type="line"/>
      <point x="653" y="34"/>
      <point x="688" y="262" type="qcurve"/>
    </contour>
  </outline>
</glyph>
<glyph name="hyphen" format="2">
  <advance width="1500"/>
  <unicode hex="002D"/>
  <unicode hex="00AD"/>
  <outline>
    <contour>
      <point x="1250" y="663" type="line"/>
      <point x="250" y="663" type="line"/>
      <point x="250" y="838" type="line"/>
      <point x="1250" y="838" type="line"/>
    </contour>
  </outline>
</glyph>
<glyph name="zero" format="1">
  <advance width="1500"/>
  <unicode hex="0030"/>
  <outline>
    <contour>
      <point x="1098" y="751" type="qcurve" smooth="yes"/>
      <point x="1098" y="619"/>
      <point x="1060" y="410"/>
      <point x="976" y="266"/>
      <point x="843" y="190"/>
      <point x="749" y="190" type="qcurve" smooth="yes"/>
      <point x="661" y="190"/>
      <point x="530" y="266"/>
      <point x="444" y="410"/>
      <point x="402" y="619"/>
      <point x="402" y="751" type="qcurve" smooth="yes"/>
      <point x="402" y="883"/>
      <point x="440" y="1092"/>
      <point x="523" y="1235"/>
      <point x="655" y="1312"/>
      <point x="749" y="1312" type="qcurve" smooth="yes"/>
      <point x="837" y="1312"/>
      <point x="968" y="1236"/>
      <point x="1055" y="1092"/>
      <point x="1098" y="884"/>
    </contour>
    <contour>
      <point x="540" y="751" type="qcurve" smooth="yes"/>
      <point x="540" y="639"/>
      <point x="562" y="472"/>
      <point x="611" y="361"/>
      <point x="691" y="305"/>
      <point x="749" y="305" type="qcurve" smooth="yes"/>
      <point x="806" y="305"/>
      <point x="886" y="360"/>
      <point x="938" y="471"/>
      <point x="961" y="638"/>
      <point x="961" y="751" type="qcurve" smooth="yes"/>
      <point x="961" y="863"/>
      <point x="938" y="1030"/>
      <point x="886" y="1140"/>
      <point x="806" y="1195"/>
      <point x="749" y="1195" type="qcurve" smooth="yes"/>
      <point x="691" y="1195"/>
      <point x="611" y="1140"/>
      <point x="562" y="1030"/>
      <point x="540" y="863"/>
    </contour>
  </outline>
</glyph>
<glyph name="one" format="1">
  <advance width="1500"/>
  <unicode hex="0031"/>
  <outline>
    <contour>
      <point x="951" y="200" type="line"/>
      <point x="819" y="200" type="line"/>
      <point x="819" y="887" type="line" smooth="yes"/>
      <point x="819" y="919"/>
      <point x="819" y="993"/>
      <point x="822" y="1066"/>
      <point x="824" y="1133"/>
      <point x="825" y="1159" type="qcurve"/>
      <point x="812" y="1145"/>
      <point x="792" y="1125"/>
      <point x="772" y="1107"/>
      <point x="749" y="1087"/>
      <point x="734" y="1074" type="qcurve" smooth="yes"/>
      <point x="622" y="982" type="line"/>
      <point x="550" y="1075" type="line"/>
      <point x="838" y="1300" type="line"/>
      <point x="951" y="1300" type="line"/>
    </contour>
  </outline>
</glyph>
<glyph name="two" format="2">
  <advance width="1500"/>
  <unicode hex="0032"/>
  <outline>
    <contour>
      <point x="1089" y="201" type="line"/>
      <point x="412" y="201" type="line"/>
      <point x="412" y="316" type="line"/>
      <point x="672" y="599" type="line" smooth="yes"/>
      <point x="727" y="659"/>
      <point x="815" y="758"/>
      <point x="877" y="853"/>
      <point x="909" y="949"/>
      <point x="909" y="1005" type="qcurve" smooth="yes"/>
      <point x="909" y="1049"/>
      <point x="884" y="1116"/>
      <point x="837" y="1163"/>
      <point x="774" y="1186"/>
      <point x="734" y="1186" type="qcurve" smooth="yes"/>
      <point x="664" y="1186"/>
      <point x="550" y="1129"/>
      <point x="499" y="1085" type="qcurve"/>
      <point x="423" y="1173" type="line"/>
      <point x="453" y="1200"/>
      <point x="521" y="1246"/>
      <point x="600" y="1280"/>
      <point x="687" y="1301"/>
      <point x="736" y="1301" type="qcurve" smooth="yes"/>
      <point x="807" y="1301"/>
      <point x="922" y="1260"/>
      <point x="1002" y="1186"/>
      <point x="1046" y="1078"/>
      <point x="1046" y="1010" type="qcurve" smooth="yes"/>
      <point x="1046" y="947"/>
      <point x="1007" y="833"/>
      <point x="938" y="723"/>
      <point x="842" y="611"/>
      <point x="786" y="551" type="qcurve" smooth="yes"/>
      <point x="578" y="330" type="line"/>
      <point x="578" y="324" type="line"/>
      <point x="1089" y="324" type="line"/>
    </contour>
  </outline>
</glyph>
<glyph name="three" format="2">
  <advance width="1500"/>
  <unicode hex="0033"/>
  <outline>
    <contour>
      <point x="1056" y="1035" type="qcurve" smooth="yes"/>
      <point x="1056" y="981"/>
      <point x="1022" y="894"/>
      <point x="962" y="829"/>
      <point x="877" y="787"/>
      <point x="825" y="779" type="qcurve"/>
      <point x="825" y="774" type="line"/>
      <point x="954" y="758"/>
      <point x="1089" y="626"/>
      <point x="1089" y="520" type="qcurve" smooth="yes"/>
      <point x="1089" y="449"/>
      <point x="1041" y="332"/>
      <point x="945" y="247"/>
      <point x="797" y="201"/>
      <point x="696" y="201" type="qcurve" smooth="yes"/>
      <point x="616" y="201"/>
      <point x="475" y="225"/>
      <point x="413" y="258" type="qcurve"/>
      <point x="413" y="383" type="line"/>
      <point x="477" y="349"/>
      <point x="625" y="312"/>
      <point x="693" y="312" type="qcurve" smooth="yes"/>
      <point x="761" y="312"/>
      <point x="859" y="342"/>
      <point x="922" y="396"/>
      <point x="952" y="475"/>
      <point x="952" y="524" type="qcurve" smooth="yes"/>
      <point x="952" y="574"/>
      <point x="913" y="645"/>
      <point x="842" y="691"/>
      <point x="739" y="713"/>
      <point x="673" y="713" type="qcurve" smooth="yes"/>
      <point x="576" y="713" type="line"/>
      <point x="576" y="823" type="line"/>
      <point x="673" y="823" type="line" smooth="yes"/>
      <point x="733" y="823"/>
      <point x="825" y="853"/>
      <point x="887" y="907"/>
      <point x="919" y="981"/>
      <point x="919" y="1026" type="qcurve" smooth="yes"/>
      <point x="919" y="1064"/>
      <point x="893" y="1124"/>
      <point x="845" y="1166"/>
      <point x="777" y="1188"/>
      <point x="736" y="1188" type="qcurve" smooth="yes"/>
      <point x="658" y="1188"/>
      <point x="539" y="1139"/>
      <point x="485" y="1099" type="qcurve"/>
      <point x="417" y="1191" type="line"/>
      <point x="445" y="1213"/>
      <point x="513" y="1253"/>
      <point x="594" y="1283"/>
      <point x="685" y="1301"/>
      <point x="736" y="1301" type="qcurve" smooth="yes"/>
      <point x="815" y="1301"/>
      <point x="935" y="1261"/>
      <point x="1015" y="1190"/>
      <point x="1056" y="1093"/>
    </contour>
  </outline>
</glyph>
<glyph name="four" format="1">
  <advance width="1500"/>
  <unicode hex="0034"/>
  <outline>
    <contour>
      <point x="1148" y="445" type="line"/>
      <point x="989" y="445" type="line"/>
      <point x="989" y="200" type="line"/>
      <point x="857" y="200" type="line"/>
      <point x="857" y="445" type="line"/>
      <point x="352" y="445" type="line"/>
      <point x="352" y="564" type="line"/>
      <point x="848" y="1300" type="line"/>
      <point x="989" y="1300" type="line"/>
      <point x="989" y="570" type="line"/>
      <point x="1148" y="570" type="line"/>
    </contour>
    <contour>
      <point x="857" y="570" type="line"/>
      <point x="857" y="836" type="line" smooth="yes"/>
      <point x="857" y="878"/>
      <point x="859" y="970"/>
      <point x="862" y="1058"/>
      <point x="866" y="1134"/>
      <point x="867" y="1159" type="qcurve"/>
      <point x="860" y="1159" type="line"/>
      <point x="855" y="1144"/>
      <point x="839" y="1108"/>
      <point x="820" y="1071"/>
      <point x="801" y="1037"/>
      <point x="793" y="1025" type="qcurve" smooth="yes"/>
      <point x="485" y="570" type="line"/>
    </contour>
  </outline>
</glyph>
<glyph name="five" format="1">
  <advance width="1500"/>
  <unicode hex="0035"/>
  <outline>
    <contour>
      <point x="731" y="883" type="qcurve" smooth="yes"/>
      <point x="804" y="883"/>
      <point x="932" y="842"/>
      <point x="1026" y="762"/>
      <point x="1080" y="642"/>
      <point x="1080" y="564" type="qcurve" smooth="yes"/>
      <point x="1080" y="479"/>
      <point x="1029" y="344"/>
      <point x="929" y="250"/>
      <point x="783" y="200"/>
      <point x="687" y="200" type="qcurve" smooth="yes"/>
      <point x="649" y="200"/>
      <point x="576" y="207"/>
      <point x="508" y="222"/>
      <point x="447" y="244"/>
      <point x="422" y="259" type="qcurve"/>
      <point x="422" y="387" type="line"/>
      <point x="447" y="370"/>
      <point x="513" y="343"/>
      <point x="586" y="325"/>
      <point x="660" y="315"/>
      <point x="691" y="315" type="qcurve" smooth="yes"/>
      <point x="750" y="315"/>
      <point x="842" y="343"/>
      <point x="906" y="401"/>
      <point x="941" y="489"/>
      <point x="941" y="549" type="qcurve" smooth="yes"/>
      <point x="941" y="656"/>
      <point x="809" y="768"/>
      <point x="684" y="768" type="qcurve" smooth="yes"/>
      <point x="664" y="768"/>
      <point x="617" y="765"/>
      <point x="570" y="759"/>
      <point x="528" y="752"/>
      <point x="512" y="749" type="qcurve"/>
      <point x="445" y="791" type="line"/>
      <point x="486" y="1304" type="line"/>
      <point x="1000" y="1304" type="line"/>
      <point x="1000" y="1180" type="line"/>
      <point x="604" y="1180" type="line"/>
      <point x="575" y="868" type="line"/>
      <point x="599" y="873"/>
      <point x="677" y="883"/>
    </contour>
  </outline>
</glyph>
<glyph name="six" format="2">
  <advance width="1500"/>
  <unicode hex="0036"/>
  <outline>
    <contour>
      <point x="413" y="673" type="qcurve" smooth="yes"/>
      <point x="413" y="749"/>
      <point x="428" y="902"/>
      <point x="467" y="1041"/>
      <point x="535" y="1161"/>
      <point x="639" y="1250"/>
      <point x="784" y="1301"/>
      <point x="881" y="1301" type="qcurve" smooth="yes"/>
      <point x="895" y="1301"/>
      <point x="929" y="1299"/>
      <point x="963" y="1295"/>
      <point x="995" y="1290"/>
      <point x="1007" y="1287" type="qcurve"/>
      <point x="1007" y="1173" type="line"/>
      <point x="982" y="1182"/>
      <point x="917" y="1191"/>
      <point x="886" y="1191" type="qcurve" smooth="yes"/>
      <point x="820" y="1191"/>
      <point x="719" y="1159"/>
      <point x="646" y="1102"/>
      <point x="597" y="1023"/>
      <point x="566" y="927"/>
      <point x="552" y="819"/>
      <point x="549" y="760" type="qcurve"/>
      <point x="558" y="760" type="line"/>
      <point x="573" y="787"/>
      <point x="615" y="833"/>
      <point x="670" y="866"/>
      <point x="740" y="885"/>
      <point x="783" y="885" type="qcurve" smooth="yes"/>
      <point x="853" y="885"/>
      <point x="966" y="842"/>
      <point x="1045" y="758"/>
      <point x="1088" y="637"/>
      <point x="1088" y="560" type="qcurve" smooth="yes"/>
      <point x="1088" y="476"/>
      <point x="1043" y="343"/>
      <point x="958" y="250"/>
      <point x="837" y="201"/>
      <point x="763" y="201" type="qcurve" smooth="yes"/>
      <point x="689" y="201"/>
      <point x="561" y="258"/>
      <point x="467" y="375"/>
      <point x="413" y="552"/>
    </contour>
    <contour>
      <point x="761" y="312" type="qcurve" smooth="yes"/>
      <point x="805" y="312"/>
      <point x="878" y="342"/>
      <point x="930" y="403"/>
      <point x="959" y="496"/>
      <point x="959" y="560" type="qcurve" smooth="yes"/>
      <point x="959" y="611"/>
      <point x="935" y="692"/>
      <point x="886" y="749"/>
      <point x="814" y="780"/>
      <point x="766" y="780" type="qcurve" smooth="yes"/>
      <point x="716" y="780"/>
      <point x="635" y="746"/>
      <point x="578" y="691"/>
      <point x="546" y="621"/>
      <point x="546" y="585" type="qcurve" smooth="yes"/>
      <point x="546" y="536"/>
      <point x="574" y="439"/>
      <point x="627" y="362"/>
      <point x="708" y="312"/>
    </contour>
  </outline>
</glyph>
<glyph name="seven" format="1">
  <advance width="1500"/>
  <unicode hex="0037"/>
  <outline>
    <contour>
      <point x="541" y="200" type="line"/>
      <point x="964" y="1175" type="line"/>
      <point x="397" y="1175" type="line"/>
      <point x="397" y="1300" type="line"/>
      <point x="1104" y="1300" type="line"/>
      <point x="1104" y="1191" type="line"/>
      <point x="687" y="200" type="line"/>
    </contour>
  </outline>
</glyph>
<glyph name="eight" format="2">
  <advance width="1500"/>
  <unicode hex="0038"/>
  <outline>
    <contour>
      <point x="751" y="1301" type="qcurve" smooth="yes"/>
      <point x="812" y="1301"/>
      <point x="921" y="1268"/>
      <point x="1003" y="1204"/>
      <point x="1052" y="1108"/>
      <point x="1052" y="1043" type="qcurve" smooth="yes"/>
      <point x="1052" y="994"/>
      <point x="1022" y="915"/>
      <point x="971" y="852"/>
      <point x="901" y="801"/>
      <point x="860" y="781" type="qcurve"/>
      <point x="903" y="758"/>
      <point x="984" y="703"/>
      <point x="1047" y="633"/>
      <point x="1086" y="547"/>
      <point x="1086" y="494" type="qcurve" smooth="yes"/>
      <point x="1086" y="426"/>
      <point x="1037" y="317"/>
      <point x="949" y="241"/>
      <point x="825" y="201"/>
      <point x="751" y="201" type="qcurve" smooth="yes"/>
      <point x="670" y="201"/>
      <point x="545" y="240"/>
      <point x="460" y="314"/>
      <point x="415" y="421"/>
      <point x="415" y="488" type="qcurve" smooth="yes"/>
      <point x="415" y="543"/>
      <point x="448" y="630"/>
      <point x="503" y="700"/>
      <point x="579" y="755"/>
      <point x="622" y="775" type="qcurve"/>
      <point x="586" y="798"/>
      <point x="523" y="851"/>
      <point x="477" y="917"/>
      <point x="450" y="996"/>
      <point x="450" y="1045" type="qcurve" smooth="yes"/>
      <point x="450" y="1108"/>
      <point x="499" y="1204"/>
      <point x="582" y="1268"/>
      <point x="691" y="1301"/>
    </contour>
    <contour>
      <point x="546" y="486" type="qcurve" smooth="yes"/>
      <point x="546" y="448"/>
      <point x="569" y="382"/>
      <point x="619" y="336"/>
      <point x="695" y="311"/>
      <point x="748" y="311" type="qcurve" smooth="yes"/>
      <point x="799" y="311"/>
      <point x="877" y="336"/>
      <point x="930" y="384"/>
      <point x="956" y="451"/>
      <point x="956" y="492" type="qcurve" smooth="yes"/>
      <point x="956" y="530"/>
      <point x="927" y="592"/>
      <point x="874" y="644"/>
      <point x="799" y="691"/>
      <point x="753" y="714" type="qcurve" smooth="yes"/>
      <point x="731" y="724" type="line"/>
      <point x="639" y="680"/>
      <point x="546" y="567"/>
    </contour>
    <contour>
      <point x="749" y="1189" type="qcurve" smooth="yes"/>
      <point x="672" y="1189"/>
      <point x="580" y="1112"/>
      <point x="580" y="1038" type="qcurve" smooth="yes"/>
      <point x="580" y="996"/>
      <point x="606" y="937"/>
      <point x="651" y="890"/>
      <point x="715" y="852"/>
      <point x="752" y="835" type="qcurve"/>
      <point x="787" y="851"/>
      <point x="849" y="889"/>
      <point x="895" y="937"/>
      <point x="922" y="999"/>
      <point x="922" y="1038" type="qcurve" smooth="yes"/>
      <point x="922" y="1112"/>
      <point x="829" y="1189"/>
    </contour>
  </outline>
</glyph>
<glyph name="nine" format="2">
  <advance width="1500"/>
  <unicode hex="0039"/>
  <outline>
    <contour>
      <point x="1088" y="828" type="qcurve" smooth="yes"/>
      <point x="1088" y="752"/>
      <point x="1073" y="599"/>
      <point x="1034" y="460"/>
      <point x="966" y="339"/>
      <point x="862" y="251"/>
      <point x="717" y="201"/>
      <point x="619" y="201" type="qcurve" smooth="yes"/>
      <point x="606" y="201"/>
      <point x="572" y="202"/>
      <point x="538" y="206"/>
      <point x="506" y="210"/>
      <point x="493" y="214" type="qcurve"/>
      <point x="493" y="328" type="line"/>
      <point x="519" y="318"/>
      <point x="584" y="310"/>
      <point x="615" y="310" type="qcurve" smooth="yes"/>
      <point x="714" y="310"/>
      <point x="842" y="378"/>
      <point x="916" y="496"/>
      <point x="948" y="653"/>
      <point x="952" y="740" type="qcurve"/>
      <point x="942" y="740" type="line"/>
      <point x="927" y="714"/>
      <point x="886" y="668"/>
      <point x="831" y="634"/>
      <point x="760" y="615"/>
      <point x="717" y="615" type="qcurve" smooth="yes"/>
      <point x="647" y="615"/>
      <point x="534" y="659"/>
      <point x="455" y="742"/>
      <point x="412" y="863"/>
      <point x="412" y="940" type="qcurve" smooth="yes"/>
      <point x="412" y="1024"/>
      <point x="458" y="1158"/>
      <point x="543" y="1251"/>
      <point x="663" y="1301"/>
      <point x="738" y="1301" type="qcurve" smooth="yes"/>
      <point x="812" y="1301"/>
      <point x="940" y="1243"/>
      <point x="1034" y="1126"/>
      <point x="1088" y="948"/>
    </contour>
    <contour>
      <point x="740" y="1188" type="qcurve" smooth="yes"/>
      <point x="696" y="1188"/>
      <point x="623" y="1159"/>
      <point x="570" y="1097"/>
      <point x="542" y="1004"/>
      <point x="542" y="940" type="qcurve" smooth="yes"/>
      <point x="542" y="889"/>
      <point x="566" y="808"/>
      <point x="614" y="751"/>
      <point x="687" y="720"/>
      <point x="735" y="720" type="qcurve" smooth="yes"/>
      <point x="785" y="720"/>
      <point x="866" y="755"/>
      <point x="923" y="809"/>
      <point x="955" y="880"/>
      <point x="955" y="915" type="qcurve" smooth="yes"/>
      <point x="955" y="964"/>
      <point x="927" y="1061"/>
      <point x="874" y="1139"/>
      <point x="793" y="1188"/>
    </contour>
  </outline>
</glyph>
<glyph name="semicolon" format="2">
  <advance width="1500"/>
  <unicode hex="003B"/>
  <unicode hex="037E"/>
  <outline>
    <contour>
      <point x="948" y="317" type="line"/>
      <point x="942" y="317" type="line"/>
      <point x="927" y="293"/>
      <point x="886" y="250"/>
      <point x="832" y="218"/>
      <point x="765" y="200"/>
      <point x="723" y="200" type="qcurve" smooth="yes"/>
      <point x="658" y="200"/>
      <point x="551" y="250"/>
      <point x="474" y="350"/>
      <point x="432" y="498"/>
      <point x="432" y="596" type="qcurve" smooth="yes"/>
      <point x="432" y="694"/>
      <point x="474" y="843"/>
      <point x="551" y="943"/>
      <point x="658" y="994"/>
      <point x="723" y="994" type="qcurve" smooth="yes"/>
      <point x="764" y="994"/>
      <point x="831" y="976"/>
      <point x="885" y="945"/>
      <point x="927" y="905"/>
      <point x="942" y="883" type="qcurve"/>
      <point x="950" y="883" type="line"/>
      <point x="948" y="906"/>
      <point x="946" y="928" type="qcurve" smooth="yes"/>
      <point x="945" y="946"/>
      <point x="942" y="985"/>
      <point x="942" y="996" type="qcurve" smooth="yes"/>
      <point x="942" y="1300" type="line"/>
      <point x="1069" y="1300" type="line"/>
      <point x="1069" y="214" type="line"/>
      <point x="966" y="214" type="line"/>
    </contour>
    <contour>
      <point x="747" y="305" type="qcurve" smooth="yes"/>
      <point x="800" y="305"/>
      <point x="874" y="338"/>
      <point x="919" y="403"/>
      <point x="941" y="502"/>
      <point x="942" y="567" type="qcurve" smooth="yes"/>
      <point x="942" y="596" type="line" smooth="yes"/>
      <point x="942" y="666"/>
      <point x="923" y="776"/>
      <point x="878" y="851"/>
      <point x="802" y="889"/>
      <point x="746" y="889" type="qcurve" smooth="yes"/>
      <point x="652" y="889"/>
      <point x="563" y="737"/>
      <point x="563" y="594" type="qcurve" smooth="yes"/>
      <point x="563" y="448"/>
      <point x="652" y="305"/>
    </contour>
  </outline>
</glyph>
<glyph name="A" format="2">
  <advance width="1500"/>
  <unicode hex="0041"/>
  <outline>
    <contour>
      <point x="875" y="3500" type="line"/>
      <point x="875" y="-1000" type="line"/>
      <point x="625" y="-1000" type="line"/>
      <point x="625" y="3500" type="line"/>
    </contour>
  </outline>
</glyph>
<glyph name="D" format="2">
  <advance width="1500"/>
  <unicode hex="0044"/>
  <outline>
    <contour>
      <point x="473" y="1284" type="qcurve"/>
      <point x="489" y="1284" type="line"/>
      <point x="564" y="1168" type="line"/>
      <point x="564" y="1160" type="line"/>
      <point x="481" y="1092"/>
      <point x="481" y="1052" type="qcurve"/>
      <point x="503" y="969"/>
      <point x="572" y="969" type="qcurve" smooth="yes"/>
      <point x="597" y="969" type="line"/>
      <point x="696" y="994" type="line"/>
      <point x="820" y="812" type="line"/>
      <point x="820" y="804" type="line"/>
      <point x="688" y="683"/>
      <point x="688" y="547" type="qcurve"/>
      <point x="709" y="365"/>
      <point x="870" y="365" type="qcurve"/>
      <point x="976" y="372"/>
      <point x="1077" y="440" type="qcurve"/>
      <point x="1093" y="440" type="line"/>
      <point x="1168" y="330"/>
      <point x="1168" y="307" type="qcurve"/>
      <point x="999" y="216"/>
      <point x="886" y="216" type="qcurve" smooth="yes"/>
      <point x="622" y="216"/>
      <point x="531" y="473" type="qcurve"/>
      <point x="514" y="589" type="line"/>
      <point x="523" y="697"/>
      <point x="630" y="812" type="qcurve"/>
      <point x="555" y="796" type="line"/>
      <point x="400" y="796"/>
      <point x="332" y="1027" type="qcurve"/>
      <point x="332" y="1044" type="line" smooth="yes"/>
      <point x="332" y="1178"/>
    </contour>
    <contour>
      <point x="1375" y="-200" type="line"/>
      <point x="125" y="-200" type="line"/>
      <point x="125" y="-100" type="line"/>
      <point x="1375" y="-100" type="line"/>
    </contour>
  </outline>
</glyph>
<glyph name="G" format="2">
  <advance width="1500"/>
  <unicode hex="0047"/>
  <outline>
    <contour>
      <point x="1151" y="601" type="qcurve" smooth="yes"/>
      <point x="1151" y="422"/>
      <point x="928" y="320" type="qcurve" smooth="yes"/>
      <point x="895" y="303"/>
      <point x="837" y="303" type="qcurve" smooth="yes"/>
      <point x="415" y="303" type="line"/>
      <point x="398" y="320" type="line"/>
      <point x="398" y="444" type="line"/>
      <point x="415" y="460" type="line"/>
      <point x="828" y="460" type="line" smooth="yes"/>
      <point x="994" y="460"/>
      <point x="994" y="626" type="qcurve" smooth="yes"/>
      <point x="994" y="787"/>
      <point x="406" y="1040" type="qcurve"/>
      <point x="398" y="1048" type="line"/>
      <point x="398" y="1197" type="line"/>
      <point x="1151" y="896"/>
    </contour>
    <contour>
      <point x="1375" y="-200" type="line"/>
      <point x="125" y="-200" type="line"/>
      <point x="125" y="-100" type="line"/>
      <point x="1375" y="-100" type="line"/>
    </contour>
  </outline>
</glyph>
<glyph name="L" format="2">
  <advance width="0"/>
  <unicode hex="004C"/>
  <outline>
    <contour>
      <point x="-584" y="-287" type="qcurve" smooth="yes"/>
      <point x="-556" y="-287"/>
      <point x="-502" y="-316"/>
      <point x="-472" y="-370"/>
      <point x="-472" y="-400" type="qcurve" smooth="yes"/>
      <point x="-472" y="-429"/>
      <point x="-501" y="-482"/>
      <point x="-555" y="-512"/>
      <point x="-584" y="-512" type="qcurve" smooth="yes"/>
      <point x="-613" y="-512"/>
      <point x="-667" y="-482"/>
      <point x="-697" y="-429"/>
      <point x="-697" y="-400" type="qcurve" smooth="yes"/>
      <point x="-697" y="-370"/>
      <point x="-666" y="-316"/>
      <point x="-613" y="-287"/>
    </contour>
    <contour>
      <point x="-912" y="-287" type="qcurve" smooth="yes"/>
      <point x="-884" y="-287"/>
      <point x="-830" y="-316"/>
      <point x="-800" y="-370"/>
      <point x="-800" y="-400" type="qcurve" smooth="yes"/>
      <point x="-800" y="-429"/>
      <point x="-829" y="-482"/>
      <point x="-883" y="-512"/>
      <point x="-912" y="-512" type="qcurve" smooth="yes"/>
      <point x="-941" y="-512"/>
      <point x="-995" y="-482"/>
      <point x="-1025" y="-429"/>
      <point x="-1025" y="-400" type="qcurve" smooth="yes"/>
      <point x="-1025" y="-370"/>
      <point x="-994" y="-316"/>
      <point x="-941" y="-287"/>
    </contour>
  </outline>
</glyph>
<glyph name="M" format="1">
  <advance width="1500"/>
  <unicode hex="004D"/>
  <outline>
    <contour>
      <point x="415" y="1200" type="line"/>
      <point x="539" y="1200" type="line"/>
      <point x="555" y="1183" type="line"/>
      <point x="555" y="604" type="line"/>
      <point x="1135" y="604" type="line"/>
      <point x="1151" y="588" type="line"/>
      <point x="1151" y="463" type="line"/>
      <point x="1135" y="447" type="line"/>
      <point x="555" y="447" type="line"/>
      <point x="555" y="17" type="line"/>
      <point x="539" y="0" type="line"/>
      <point x="415" y="0" type="line"/>
      <point x="398" y="17" type="line"/>
      <point x="398" y="1183" type="line"/>
    </contour>
    <contour>
      <point x="768" y="1569" type="line"/>
      <point x="903" y="1569" type="line"/>
      <point x="921" y="1551" type="line"/>
      <point x="921" y="768" type="line"/>
      <point x="903" y="750" type="line"/>
      <point x="768" y="750" type="line"/>
      <point x="750" y="768" type="line"/>
      <point x="750" y="1551" type="line"/>
    </contour>
  </outline>
</glyph>
<glyph name="N" format="2">
  <advance width="1500"/>
  <unicode hex="004E"/>
  <outline>
    <contour>
      <point x="1151" y="1183" type="line"/>
      <point x="1151" y="17" type="line"/>
      <point x="1135" y="0" type="line"/>
      <point x="1010" y="0" type="line"/>
      <point x="994" y="17" type="line"/>
      <point x="994" y="447" type="line"/>
      <point x="415" y="447" type="line"/>
      <point x="398" y="463" type="line"/>
      <point x="398" y="588" type="line"/>
      <point x="415" y="604" type="line"/>
      <point x="994" y="604" type="line"/>
      <point x="994" y="1183" type="line"/>
      <point x="1010" y="1200" type="line"/>
      <point x="1135" y="1200" type="line"/>
    </contour>
    <contour>
      <point x="1375" y="-200" type="line"/>
      <point x="125" y="-200" type="line"/>
      <point x="125" y="-100" type="line"/>
      <point x="1375" y="-100" type="line"/>
    </contour>
  </outline>
</glyph>
<glyph name="U" format="1">
  <advance width="0"/>
  <unicode hex="0055"/>
  <outline>
    <contour>
      <point x="-585" y="1913" type="qcurve" smooth="yes"/>
      <point x="-557" y="1913"/>
      <point x="-503" y="1883"/>
      <point x="-473" y="1829"/>
      <point x="-473" y="1800" type="qcurve" smooth="yes"/>
      <point x="-473" y="1771"/>
      <point x="-502" y="1717"/>
      <point x="-556" y="1688"/>
      <point x="-585" y="1688" type="qcurve" smooth="yes"/>
      <point x="-614" y="1688"/>
      <point x="-668" y="1717"/>
      <point x="-698" y="1771"/>
      <point x="-698" y="1800" type="qcurve" smooth="yes"/>
      <point x="-698" y="1829"/>
      <point x="-667" y="1883"/>
      <point x="-614" y="1913"/>
    </contour>
    <contour>
      <point x="-913" y="1913" type="qcurve" smooth="yes"/>
      <point x="-885" y="1913"/>
      <point x="-831" y="1883"/>
      <point x="-801" y="1829"/>
      <point x="-801" y="1800" type="qcurve" smooth="yes"/>
      <point x="-801" y="1771"/>
      <point x="-830" y="1717"/>
      <point x="-884" y="1688"/>
      <point x="-913" y="1688" type="qcurve" smooth="yes"/>
      <point x="-942" y="1688"/>
      <point x="-996" y="1717"/>
      <point x="-1026" y="1771"/>
      <point x="-1026" y="1800" type="qcurve" smooth="yes"/>
      <point x="-1026" y="1829"/>
      <point x="-995" y="1883"/>
      <point x="-942" y="1913"/>
    </contour>
  </outline>
</glyph>
<glyph name="bracketleft" format="2">
  <advance width="1500"/>
  <unicode hex="005B"/>
  <outline>
    <contour>
      <point x="1156" y="761" type="qcurve" smooth="yes"/>
      <point x="1156" y="621"/>
      <point x="1084" y="411"/>
      <point x="947" y="271"/>
      <point x="748" y="200"/>
      <point x="621" y="200" type="qcurve" smooth="yes"/>
      <point x="346" y="200" type="line"/>
      <point x="346" y="1300" type="line"/>
      <point x="652" y="1300" type="line" smooth="yes"/>
      <point x="767" y="1300"/>
      <point x="954" y="1231"/>
      <point x="1085" y="1095"/>
      <point x="1156" y="893"/>
    </contour>
    <contour>
      <point x="1008" y="756" type="qcurve" smooth="yes"/>
      <point x="1008" y="866"/>
      <point x="958" y="1026"/>
      <point x="863" y="1130"/>
      <point x="725" y="1180"/>
      <point x="637" y="1180" type="qcurve" smooth="yes"/>
      <point x="486" y="1180" type="line"/>
      <point x="486" y="320" type="line"/>
      <point x="608" y="320" type="line" smooth="yes"/>
      <point x="806" y="320"/>
      <point x="1008" y="540"/>
    </contour>
  </outline>
</glyph>
<glyph name="backslash" format="2">
  <advance width="3000"/>
  <unicode hex="005C"/>
  <outline>
    <contour>
      <point x="1353" y="870" type="qcurve"/>
      <point x="1353" y="1036"/>
      <point x="1252" y="1230"/>
      <point x="1157" y="1230" type="qcurve" smooth="yes"/>
      <point x="1081" y="1230"/>
      <point x="1012" y="1207" type="qcurve"/>
      <point x="993" y="1268" type="line"/>
      <point x="1072" y="1300"/>
      <point x="1177" y="1300" type="qcurve" smooth="yes"/>
      <point x="1329" y="1300"/>
      <point x="1494" y="1063"/>
      <point x="1494" y="840" type="qcurve" smooth="yes"/>
      <point x="1494" y="542"/>
      <point x="1269" y="200"/>
      <point x="1074" y="200" type="qcurve" smooth="yes"/>
      <point x="936" y="200"/>
      <point x="786" y="352"/>
      <point x="786" y="491" type="qcurve" smooth="yes"/>
      <point x="786" y="674"/>
      <point x="1015" y="938"/>
      <point x="1188" y="938" type="qcurve" smooth="yes"/>
      <point x="1302" y="938"/>
    </contour>
    <contour>
      <point x="1351" y="750" type="qcurve"/>
      <point x="1301" y="864"/>
      <point x="1181" y="864" type="qcurve" smooth="yes"/>
      <point x="1076" y="864"/>
      <point x="931" y="648"/>
      <point x="931" y="475" type="qcurve" smooth="yes"/>
      <point x="931" y="269"/>
      <point x="1095" y="269" type="qcurve" smooth="yes"/>
      <point x="1203" y="269"/>
      <point x="1342" y="536"/>
    </contour>
    <contour>
      <point x="2091" y="798" type="qcurve"/>
      <point x="2091" y="917"/>
      <point x="2031" y="917" type="qcurve" smooth="yes"/>
      <point x="1962" y="917"/>
      <point x="1807" y="644"/>
      <point x="1769" y="472" type="qcurve" smooth="yes"/>
      <point x="1713" y="200" type="line"/>
      <point x="1574" y="200" type="line"/>
      <point x="1699" y="800" type="line" smooth="yes"/>
      <point x="1708" y="842"/>
      <point x="1708" y="867" type="qcurve" smooth="yes"/>
      <point x="1708" y="938"/>
      <point x="1589" y="938" type="qcurve" smooth="yes"/>
      <point x="1577" y="938" type="line"/>
      <point x="1591" y="1000" type="line"/>
      <point x="1855" y="1000" type="line"/>
      <point x="1823" y="785" type="line"/>
      <point x="1839" y="785" type="line"/>
      <point x="1899" y="919"/>
      <point x="2015" y="1015"/>
      <point x="2092" y="1015" type="qcurve" smooth="yes"/>
      <point x="2215" y="1015"/>
      <point x="2215" y="912" type="qcurve" smooth="yes"/>
      <point x="2215" y="798"/>
    </contour>
  </outline>
</glyph>
<glyph name="bracketright" format="1">
  <advance width="1500"/>
  <unicode hex="005D"/>
  <outline>
    <contour>
      <point x="520" y="654" type="line"/>
      <point x="520" y="200" type="line"/>
      <point x="380" y="200" type="line"/>
      <point x="380" y="1300" type="line"/>
      <point x="648" y="1300" type="line" smooth="yes"/>
      <point x="848" y="1300"/>
      <point x="1039" y="1145"/>
      <point x="1039" y="988" type="qcurve" smooth="yes"/>
      <point x="1039" y="922"/>
      <point x="1002" y="824"/>
      <point x="941" y="755"/>
      <point x="863" y="708"/>
      <point x="822" y="693" type="qcurve"/>
      <point x="1121" y="200" type="line"/>
      <point x="956" y="200" type="line"/>
      <point x="692" y="654" type="line"/>
    </contour>
    <contour>
      <point x="520" y="773" type="line"/>
      <point x="643" y="773" type="line" smooth="yes"/>
      <point x="711" y="773"/>
      <point x="806" y="800"/>
      <point x="867" y="852"/>
      <point x="895" y="929"/>
      <point x="895" y="981" type="qcurve" smooth="yes"/>
      <point x="895" y="1035"/>
      <point x="864" y="1110"/>
      <point x="801" y="1159"/>
      <point x="706" y="1180"/>
      <point x="640" y="1180" type="qcurve" smooth="yes"/>
      <point x="520" y="1180" type="line"/>
    </contour>
  </outline>
</glyph>
<glyph name="underscore" format="1">
  <advance width="1500"/>
  <unicode hex="005F"/>
  <outline>
    <contour>
      <point x="1500" y="663" type="line"/>
      <point x="0" y="663" type="line"/>
      <point x="0" y="838" type="line"/>
      <point x="1500" y="838" type="line"/>
    </contour>
  </outline>
</glyph>
<glyph name="a" format="2">
  <advance width="1500"/>
  <unicode hex="0061"/>
  <outline>
    <contour>
      <point x="838" y="-250" type="line"/>
      <point x="663" y="-250" type="line"/>
      <point x="663" y="1750" type="line"/>
      <point x="838" y="1750" type="line"/>
    </contour>
  </outline>
</glyph>
<glyph name="l" format="2">
  <advance width="0"/>
  <unicode hex="006C"/>
  <outline>
    <contour>
      <point x="-749" y="-287" type="qcurve" smooth="yes"/>
      <point x="-721" y="-287"/>
      <point x="-667" y="-316"/>
      <point x="-637" y="-370"/>
      <point x="-637" y="-400" type="qcurve" smooth="yes"/>
      <point x="-637" y="-429"/>
      <point x="-666" y="-482"/>
      <point x="-720" y="-512"/>
      <point x="-749" y="-512" type="qcurve" smooth="yes"/>
      <point x="-778" y="-512"/>
      <point x="-832" y="-482"/>
      <point x="-862" y="-429"/>
      <point x="-862" y="-400" type="qcurve" smooth="yes"/>
      <point x="-862" y="-370"/>
      <point x="-831" y="-316"/>
      <point x="-778" y="-287"/>
    </contour>
  </outline>
</glyph>
<glyph name="m" format="1">
  <advance width="1500"/>
  <unicode hex="006D"/>
  <outline>
    <contour>
      <point x="415" y="1200" type="line"/>
      <point x="539" y="1200" type="line"/>
      <point x="555" y="1183" type="line"/>
      <point x="555" y="604" type="line"/>
      <point x="1135" y="604" type="line"/>
      <point x="1151" y="588" type="line"/>
      <point x="1151" y="463" type="line"/>
      <point x="1135" y="447" type="line"/>
      <point x="555" y="447" type="line"/>
      <point x="555" y="17" type="line"/>
      <point x="539" y="0" type="line"/>
      <point x="415" y="0" type="line"/>
      <point x="398" y="17" type="line"/>
      <point x="398" y="1183" type="line"/>
    </contour>
  </outline>
</glyph>
<glyph name="p" format="1">
  <advance width="1500"/>
  <unicode hex="0070"/>
  <outline>
    <contour>
      <point x="1151" y="1197" type="qcurve"/>
      <point x="1151" y="1048" type="line"/>
      <point x="1143" y="1040" type="line"/>
      <point x="555" y="787"/>
      <point x="555" y="626" type="qcurve" smooth="yes"/>
      <point x="555" y="460"/>
      <point x="721" y="460" type="qcurve" smooth="yes"/>
      <point x="1135" y="460" type="line"/>
      <point x="1151" y="444" type="line"/>
      <point x="1151" y="320" type="line"/>
      <point x="1135" y="303" type="line"/>
      <point x="712" y="303" type="line" smooth="yes"/>
      <point x="654" y="303"/>
      <point x="621" y="320" type="qcurve" smooth="yes"/>
      <point x="398" y="422"/>
      <point x="398" y="601" type="qcurve" smooth="yes"/>
      <point x="398" y="896"/>
    </contour>
  </outline>
</glyph>
<glyph name="r" format="2">
  <advance width="1500"/>
  <unicode hex="0072"/>
  <outline>
    <contour>
      <point x="307" y="1202" type="qcurve"/>
      <point x="332" y="1202" type="line" smooth="yes"/>
      <point x="620" y="1202"/>
      <point x="787" y="1003" type="qcurve"/>
      <point x="807" y="1003"/>
      <point x="1193" y="606" type="qcurve"/>
      <point x="1193" y="598" type="line"/>
      <point x="1052" y="598" type="line"/>
      <point x="783" y="896"/>
      <point x="597" y="896" type="qcurve" smooth="yes"/>
      <point x="464" y="896" type="line" smooth="yes"/>
      <point x="438" y="896"/>
    </contour>
  </outline>
</glyph>
<glyph name="s" format="2">
  <advance width="1500"/>
  <unicode hex="0073"/>
  <outline>
    <contour>
      <point x="316" y="837" type="line"/>
      <point x="427" y="1193"/>
      <point x="746" y="1193" type="qcurve"/>
      <point x="837" y="1184" type="line"/>
      <point x="1193" y="1073"/>
      <point x="1193" y="754" type="qcurve"/>
      <point x="1184" y="663" type="line"/>
      <point x="1073" y="307"/>
      <point x="754" y="307" type="qcurve"/>
      <point x="663" y="316" type="line"/>
      <point x="307" y="427"/>
      <point x="307" y="746" type="qcurve"/>
    </contour>
    <contour>
      <point x="589" y="1325" type="qcurve" smooth="yes"/>
      <point x="150" y="1162"/>
      <point x="150" y="754" type="qcurve" smooth="yes"/>
      <point x="150" y="649"/>
      <point x="175" y="589" type="qcurve" smooth="yes"/>
      <point x="338" y="150"/>
      <point x="746" y="150" type="qcurve" smooth="yes"/>
      <point x="851" y="150"/>
      <point x="911" y="175" type="qcurve" smooth="yes"/>
      <point x="1350" y="338"/>
      <point x="1350" y="746" type="qcurve" smooth="yes"/>
      <point x="1350" y="851"/>
      <point x="1325" y="911" type="qcurve" smooth="yes"/>
      <point x="1162" y="1350"/>
      <point x="754" y="1350" type="qcurve" smooth="yes"/>
      <point x="649" y="1350"/>
    </contour>
  </outline>
</glyph>
<glyph name="u" format="1">
  <advance width="0"/>
  <unicode hex="0075"/>
  <outline>
    <contour>
      <point x="-749" y="1913" type="qcurve" smooth="yes"/>
      <point x="-721" y="1913"/>
      <point x="-667" y="1883"/>
      <point x="-637" y="1829"/>
      <point x="-637" y="1800" type="qcurve" smooth="yes"/>
      <point x="-637" y="1771"/>
      <point x="-666" y="1717"/>
      <point x="-720" y="1688"/>
      <point x="-749" y="1688" type="qcurve" smooth="yes"/>
      <point x="-778" y="1688"/>
      <point x="-832" y="1717"/>
      <point x="-862" y="1771"/>
      <point x="-862" y="1800" type="qcurve" smooth="yes"/>
      <point x="-862" y="1829"/>
      <point x="-831" y="1883"/>
      <point x="-778" y="1913"/>
    </contour>
  </outline>
</glyph>
<glyph name="v" format="1">
  <advance width="0"/>
  <unicode hex="0076"/>
  <outline>
    <contour>
      <point x="-1231" y="2378" type="qcurve" smooth="yes"/>
      <point x="-1199" y="2378"/>
      <point x="-943" y="2135" type="qcurve"/>
      <point x="-889" y="2135" type="line"/>
      <point x="-619" y="2369" type="line"/>
      <point x="-583" y="2378" type="line"/>
      <point x="-551" y="2378"/>
      <point x="-295" y="2135" type="qcurve"/>
      <point x="-241" y="2135" type="line"/>
      <point x="-106" y="2243" type="line"/>
      <point x="-97" y="2243" type="line"/>
      <point x="-97" y="2135" type="line"/>
      <point x="-210" y="2000"/>
      <point x="-268" y="2000" type="qcurve" smooth="yes"/>
      <point x="-299" y="2000"/>
      <point x="-556" y="2243" type="qcurve"/>
      <point x="-610" y="2243" type="line"/>
      <point x="-880" y="2009" type="line"/>
      <point x="-916" y="2000" type="line"/>
      <point x="-947" y="2000"/>
      <point x="-1204" y="2243" type="qcurve"/>
      <point x="-1258" y="2243" type="line"/>
      <point x="-1393" y="2135" type="line"/>
      <point x="-1402" y="2135" type="line"/>
      <point x="-1402" y="2243" type="line"/>
      <point x="-1288" y="2378"/>
    </contour>
  </outline>
</glyph>
<glyph name="x" format="1">
  <advance width="1500"/>
  <unicode hex="0078"/>
  <outline>
    <contour>
      <point x="1166" y="1042" type="line"/>
      <point x="459" y="335" type="line"/>
      <point x="335" y="458" type="line"/>
      <point x="1042" y="1165" type="line"/>
    </contour>
    <contour>
      <point x="459" y="1165" type="line"/>
      <point x="1166" y="458" type="line"/>
      <point x="1042" y="335" type="line"/>
      <point x="335" y="1042" type="line"/>
    </contour>
  </outline>
</glyph>
<glyph name="endash" format="2">
  <advance width="1500"/>
  <unicode hex="2013"/>
  <outline>
    <contour>
      <point x="1250" y="663" type="line"/>
      <point x="250" y="663" type="line"/>
      <point x="250" y="838" type="line"/>
      <point x="1250" y="838" type="line"/>
    </contour>
  </outline>
</glyph>
